<?xml version="1.0" standalone="no"?>
<!DOCTYPE svg PUBLIC "-//W3C//DTD SVG 20010904//EN"
 "http://www.w3.org/TR/2001/REC-SVG-20010904/DTD/svg10.dtd">
<svg version="1.0" xmlns="http://www.w3.org/2000/svg"
 width="300.000000pt" height="300.000000pt" viewBox="0 0 300.000000 300.000000"
 preserveAspectRatio="xMidYMid meet">
<metadata>
Created by potrace 1.11, written by Peter Selinger 2001-2013
</metadata>
<g transform="translate(0.000000,300.000000) scale(0.100000,-0.100000)"
fill="#000000" stroke="none">
<path d="M1301 2987 c-10 -13 -19 -45 -20 -78 -1 -11 -11 -16 -31 -16 -21 0
-36 -7 -48 -24 -17 -24 -17 -24 -22 36 -4 44 -9 60 -20 60 -10 0 -15 -11 -16
-35 -3 -65 -42 -134 -69 -123 -18 6 -39 68 -39 118 -1 33 -4 40 -21 40 -19 0
-20 -7 -20 -93 0 -78 -3 -95 -17 -103 -10 -6 -18 -18 -18 -28 0 -20 -37 -58
-46 -48 -4 4 -1 20 6 36 6 16 9 35 5 41 -10 17 -44 -17 -65 -66 -10 -23 -22
-44 -28 -47 -19 -12 -90 34 -101 65 -9 26 -13 29 -26 18 -16 -13 -12 -50 11
-85 16 -26 33 -120 24 -135 -9 -15 -25 6 -34 43 -5 20 -12 27 -24 25 -27 -5
-27 -55 2 -112 22 -44 24 -56 15 -89 -9 -32 -12 -36 -29 -27 -25 13 -85 6
-116 -15 -27 -17 -29 -26 -13 -42 9 -9 19 -6 39 9 23 16 31 18 49 8 12 -6 26
-22 31 -36 13 -32 13 -54 1 -35 -15 23 -34 1 -27 -31 5 -26 3 -29 -12 -23 -70
29 -72 -1 -3 -44 48 -29 79 -66 67 -79 -4 -3 -12 2 -19 12 -9 12 -32 19 -73
23 -56 5 -61 4 -92 -25 -17 -16 -32 -37 -32 -46 0 -20 36 -21 43 -2 3 8 17 22
30 31 34 22 66 7 106 -46 35 -48 39 -78 15 -114 -13 -20 -20 -23 -34 -15 -25
14 -60 13 -60 -2 0 -6 23 -39 52 -72 28 -34 48 -58 43 -53 -5 4 -16 0 -26 -9
-16 -14 -21 -13 -65 10 -34 18 -51 22 -60 15 -7 -6 -11 -16 -8 -23 7 -19 74
-49 114 -51 19 -1 49 -9 67 -18 18 -10 40 -17 49 -17 15 0 14 -4 -6 -25 l-23
-24 -17 21 c-9 12 -22 18 -28 14 -21 -13 -13 -45 19 -76 l32 -30 -29 -1 c-16
-1 -41 0 -56 1 -19 1 -28 -3 -28 -14 0 -21 29 -34 68 -31 17 1 32 -1 32 -6 0
-5 -4 -9 -8 -9 -12 0 -48 -68 -40 -76 11 -11 47 6 53 26 10 31 46 37 65 10 8
-13 32 -40 54 -60 l38 -37 -22 -16 c-36 -25 -23 -58 33 -87 27 -14 55 -36 62
-50 12 -22 10 -28 -16 -58 -30 -34 -33 -52 -10 -60 7 -2 15 6 18 17 8 31 44
23 118 -27 33 -22 92 -52 130 -67 l70 -27 -1 -49 c-1 -28 -4 -52 -6 -55 -3 -2
-38 -7 -79 -9 -74 -5 -88 -7 -144 -20 -219 -51 -416 -214 -515 -428 -43 -92
-60 -168 -68 -300 l-7 -117 1072 0 1073 0 1 48 c5 250 -75 451 -245 609 -141
132 -345 215 -517 210 -27 -1 -49 3 -50 8 -7 108 -11 100 76 134 33 13 86 41
119 62 32 22 60 39 61 39 2 0 5 -12 7 -27 5 -44 34 -37 30 7 -8 98 -5 108 24
92 22 -12 54 -4 54 14 0 7 -11 16 -25 20 -30 7 -30 10 -6 67 20 46 46 61 75
45 17 -9 36 -3 36 12 0 5 -9 12 -20 15 -11 3 -20 11 -20 16 0 6 4 8 9 5 13 -9
34 21 25 36 -7 11 -7 58 1 66 1 2 15 5 29 8 21 4 34 -2 56 -26 16 -18 33 -29
38 -26 15 9 1 55 -20 71 -16 11 -19 20 -14 47 3 18 7 39 8 46 2 17 17 15 24
-3 4 -8 12 -15 20 -15 21 0 17 44 -7 74 -12 15 -18 34 -15 42 11 28 49 -7 59
-52 9 -45 29 -62 39 -34 11 29 -2 86 -26 112 -25 27 -48 68 -38 69 4 1 16 3
27 4 11 1 30 5 43 9 29 10 25 40 -5 44 -23 3 -73 45 -73 60 0 5 11 7 24 5 35
-7 55 31 25 47 -14 8 -17 15 -10 24 13 16 -1 37 -27 39 -31 2 -27 12 17 48 22
17 42 38 45 46 11 26 -5 35 -31 17 -25 -16 -26 -16 -18 2 13 34 24 88 18 97
-11 19 -37 0 -47 -35 -7 -25 -15 -35 -23 -30 -9 5 -6 22 11 63 12 30 20 61 18
67 -5 15 -32 16 -32 0 0 -6 -3 -8 -6 -5 -4 3 2 23 12 44 23 48 25 128 4 128
-11 0 -17 -15 -21 -51 -8 -62 -14 -74 -40 -74 -24 0 -24 10 2 59 23 45 18 63
-14 59 -19 -3 -22 1 -19 32 2 19 5 45 7 58 5 31 -4 52 -22 52 -13 0 -14 10 -8
55 8 66 0 83 -26 59 -11 -10 -19 -30 -19 -50 0 -37 -23 -66 -45 -58 -17 7 -17
7 -6 54 4 20 4 47 -1 60 -9 24 -10 24 -23 6 -8 -10 -12 -24 -9 -30 3 -6 -2 -2
-10 8 -15 19 -16 19 -36 1 l-21 -19 3 67 c2 52 -1 70 -12 77 -17 11 -37 -10
-47 -48 -9 -36 -27 -20 -37 32 -7 38 -5 50 8 65 20 22 20 27 1 35 -33 12 -45
-4 -45 -63 -1 -47 -2 -53 -12 -36 -15 26 -28 34 -44 28 -10 -4 -13 4 -13 28 3
70 2 73 -23 57 -13 -9 -23 -19 -23 -24 0 -18 -28 -74 -36 -74 -14 0 -11 26 11
82 11 29 20 56 20 61 0 19 -37 3 -75 -32 -24 -22 -56 -46 -72 -55 -29 -15 -30
-14 -67 25 -34 38 -56 44 -56 15 0 -8 -7 -19 -15 -26 -13 -11 -22 -10 -50 3
-31 15 -34 20 -29 46 3 16 1 31 -4 35 -15 9 -42 -22 -49 -55 -3 -16 -12 -34
-19 -40 -21 -17 -19 49 2 72 17 19 12 39 -10 39 -8 0 -19 -6 -25 -13z m4 -887
c3 -5 1 -10 -4 -10 -6 0 -11 5 -11 10 0 6 2 10 4 10 3 0 8 -4 11 -10z m-121
-18 c3 -5 -1 -9 -9 -9 -8 0 -12 4 -9 9 3 4 7 8 9 8 2 0 6 -4 9 -8z m-44 -16
c0 -2 -8 -10 -17 -17 -16 -13 -17 -12 -4 4 13 16 21 21 21 13z m650 -86 c0 -5
-5 -10 -11 -10 -5 0 -7 5 -4 10 3 6 8 10 11 10 2 0 4 -4 4 -10z m78 -25 c-3
-3 -9 2 -12 12 -6 14 -5 15 5 6 7 -7 10 -15 7 -18z m-97 -12 c13 -16 12 -17
-3 -4 -17 13 -22 21 -14 21 2 0 10 -8 17 -17z m154 -3 c3 -5 1 -10 -4 -10 -6
0 -11 5 -11 10 0 6 2 10 4 10 3 0 8 -4 11 -10z"/>
</g>
</svg>
